<svg width="491" height="374" viewBox="0 0 491 374" fill="none" xmlns="http://www.w3.org/2000/svg">
<path d="M37.3367 42.2L0.136719 33.2V9.8C4.93672 8.99998 11.1367 8.19998 18.7367 7.39999C26.3367 6.19999 34.1367 5.19999 42.1367 4.4C50.1367 3.19999 57.1367 2.39999 63.1367 1.99999C69.1367 1.19998 72.7367 0.799971 73.9367 0.799971C75.1367 0.799971 77.3367 2.19998 80.5367 4.99999C83.7367 7.79998 86.5367 11 88.9367 14.6C91.7367 17.8 93.1367 20 93.1367 21.2V332.6L144.737 341.6L133.337 363.8C129.337 364.2 123.137 365 114.737 366.2C106.737 367.4 98.5367 368.4 90.1367 369.2C81.7367 370.4 74.3367 371.4 67.9367 372.2C61.9367 373 58.5367 373.4 57.7367 373.4C56.5367 373.4 54.3367 372 51.1367 369.2C47.9367 366.4 44.7367 363.4 41.5367 360.2C38.7367 357 37.3367 354.8 37.3367 353.6V42.2ZM217.337 353V81.8C217.337 72.6 216.137 65.4 213.737 60.2C211.337 55 207.937 51.4 203.537 49.4C199.537 47 194.337 45.8 187.937 45.8C181.537 45.8 174.937 47.8 168.137 51.8C161.737 55.8 155.337 60.4 148.937 65.6L126.137 42.2C132.937 37 140.737 31.4 149.537 25.4C158.737 19 167.137 13.4 174.737 8.59998C182.337 3.79999 187.137 1.19999 189.137 0.799971C196.337 0.399976 203.537 0.599986 210.737 1.4C218.337 2.19999 225.537 3.59998 232.337 5.59998C239.137 7.19998 245.337 9.79999 250.937 13.4C255.337 18.2 259.137 24.4 262.337 32C265.537 39.6 268.137 48.4 270.137 58.4C272.137 68.4 273.137 79.4 273.137 91.4V332L324.737 341.6L313.337 363.8C309.337 364.2 303.337 365 295.337 366.2C287.337 367.4 278.937 368.4 270.137 369.2C261.737 370.4 254.337 371.4 247.937 372.2C241.537 373 237.737 373.4 236.537 373.4C235.337 373.4 233.137 371.8 229.937 368.6C226.737 365.8 223.737 362.8 220.937 359.6C218.537 356.4 217.337 354.2 217.337 353ZM397.337 353V81.8C397.337 72.6 396.137 65.4 393.737 60.2C391.337 55 387.937 51.4 383.537 49.4C379.537 47 374.337 45.8 367.937 45.8C361.537 45.8 354.937 47.8 348.137 51.8C341.737 55.8 335.337 60.4 328.937 65.6L306.137 42.2C312.937 37 320.737 31.4 329.537 25.4C338.737 19 347.137 13.4 354.737 8.59998C362.337 3.79999 367.137 1.19999 369.137 0.799971C376.337 0.399976 383.537 0.599986 390.737 1.4C398.337 2.19999 405.537 3.59998 412.337 5.59998C419.137 7.19998 425.337 9.79999 430.937 13.4C437.337 21 442.537 31.4 446.537 44.6C450.937 57.8 453.137 73.4 453.137 91.4V332L490.337 341V364.4C485.537 365.2 479.337 366.2 471.737 367.4C464.137 368.2 456.337 369 448.337 369.8C440.337 371 433.337 371.8 427.337 372.2C421.337 373 417.737 373.4 416.537 373.4C415.337 373.4 413.137 371.8 409.937 368.6C406.737 365.8 403.737 362.8 400.937 359.6C398.537 356.4 397.337 354.2 397.337 353ZM157.337 42.2V307.4C157.337 309.8 156.337 314.2 154.337 320.6C152.337 326.6 149.137 333.6 144.737 341.6H126.137V42.2H157.337ZM337.337 42.2V307.4C337.337 309.8 336.337 314.2 334.337 320.6C332.337 326.6 329.137 333.6 324.737 341.6H306.137V42.2H337.337Z" fill="url(#paint0_linear_1_3)"/>
<defs>
<linearGradient id="paint0_linear_1_3" x1="242" y1="-103" x2="242" y2="406" gradientUnits="userSpaceOnUse">
<stop stop-color="#B26AD3"/>
<stop offset="1"/>
</linearGradient>
</defs>
</svg>
